<mxfile host="Electron" agent="Mozilla/5.0 (Windows NT 10.0; Win64; x64) AppleWebKit/537.36 (KHTML, like Gecko) draw.io/24.7.8 Chrome/128.0.6613.36 Electron/32.0.1 Safari/537.36" version="24.7.8">
  <diagram name="Page-1" id="T-toXczuMmgDq9AKwPGu">
    <mxGraphModel dx="1332" dy="1632" grid="1" gridSize="10" guides="1" tooltips="1" connect="1" arrows="1" fold="1" page="1" pageScale="1" pageWidth="850" pageHeight="1100" math="0" shadow="0">
      <root>
        <mxCell id="0" />
        <mxCell id="1" parent="0" />
        <mxCell id="D7flc1hGJWLErZ-f8fK9-62" value="" style="shape=partialRectangle;whiteSpace=wrap;html=1;bottom=0;right=0;fillColor=none;flipH=1;" vertex="1" parent="1">
          <mxGeometry x="560" y="-920" width="720" height="120" as="geometry" />
        </mxCell>
        <mxCell id="D7flc1hGJWLErZ-f8fK9-3" value="" style="edgeStyle=orthogonalEdgeStyle;rounded=0;orthogonalLoop=1;jettySize=auto;html=1;" edge="1" parent="1" source="D7flc1hGJWLErZ-f8fK9-1" target="D7flc1hGJWLErZ-f8fK9-2">
          <mxGeometry relative="1" as="geometry" />
        </mxCell>
        <mxCell id="D7flc1hGJWLErZ-f8fK9-1" value="&lt;b&gt;mulai&lt;/b&gt;" style="strokeWidth=2;html=1;shape=mxgraph.flowchart.start_1;whiteSpace=wrap;" vertex="1" parent="1">
          <mxGeometry x="375" y="-1070" width="100" height="60" as="geometry" />
        </mxCell>
        <mxCell id="D7flc1hGJWLErZ-f8fK9-7" value="" style="edgeStyle=orthogonalEdgeStyle;rounded=0;orthogonalLoop=1;jettySize=auto;html=1;" edge="1" parent="1" source="D7flc1hGJWLErZ-f8fK9-2" target="D7flc1hGJWLErZ-f8fK9-6">
          <mxGeometry relative="1" as="geometry" />
        </mxCell>
        <mxCell id="D7flc1hGJWLErZ-f8fK9-2" value="&lt;b&gt;input pilihan menu&lt;/b&gt;&lt;div&gt;&lt;b&gt;1. Lihat Jadwal Praktik dan Operasi Dokter&lt;/b&gt;&lt;/div&gt;&lt;div&gt;&lt;b&gt;2. Tambah Jadwal Dokter&lt;/b&gt;&lt;/div&gt;&lt;div&gt;&lt;b&gt;3. Perbarui Jadwal Operasi Dokter&lt;/b&gt;&lt;/div&gt;&lt;div&gt;&lt;b&gt;4. Hapus Jadwal Operasi Dokter&lt;/b&gt;&lt;/div&gt;&lt;div&gt;&lt;b&gt;5. Keluar&lt;/b&gt;&lt;/div&gt;" style="shape=parallelogram;perimeter=parallelogramPerimeter;whiteSpace=wrap;html=1;fixedSize=1;strokeWidth=2;" vertex="1" parent="1">
          <mxGeometry x="313" y="-980" width="225" height="130" as="geometry" />
        </mxCell>
        <mxCell id="D7flc1hGJWLErZ-f8fK9-11" value="" style="edgeStyle=orthogonalEdgeStyle;rounded=0;orthogonalLoop=1;jettySize=auto;html=1;" edge="1" parent="1" source="D7flc1hGJWLErZ-f8fK9-6" target="D7flc1hGJWLErZ-f8fK9-10">
          <mxGeometry relative="1" as="geometry" />
        </mxCell>
        <mxCell id="D7flc1hGJWLErZ-f8fK9-15" value="" style="edgeStyle=orthogonalEdgeStyle;rounded=0;orthogonalLoop=1;jettySize=auto;html=1;" edge="1" parent="1" source="D7flc1hGJWLErZ-f8fK9-6" target="D7flc1hGJWLErZ-f8fK9-14">
          <mxGeometry relative="1" as="geometry" />
        </mxCell>
        <mxCell id="D7flc1hGJWLErZ-f8fK9-6" value="&lt;b&gt;pilihan == 1&lt;/b&gt;" style="rhombus;whiteSpace=wrap;html=1;strokeWidth=2;" vertex="1" parent="1">
          <mxGeometry x="385" y="-810" width="80" height="80" as="geometry" />
        </mxCell>
        <mxCell id="D7flc1hGJWLErZ-f8fK9-13" value="" style="edgeStyle=orthogonalEdgeStyle;rounded=0;orthogonalLoop=1;jettySize=auto;html=1;" edge="1" parent="1" source="D7flc1hGJWLErZ-f8fK9-10" target="D7flc1hGJWLErZ-f8fK9-12">
          <mxGeometry relative="1" as="geometry" />
        </mxCell>
        <mxCell id="D7flc1hGJWLErZ-f8fK9-10" value="&lt;b&gt;output&lt;/b&gt;&lt;div&gt;&lt;b&gt;&quot;Lihat Jadwal Dokter&quot;&lt;/b&gt;&lt;/div&gt;" style="shape=parallelogram;perimeter=parallelogramPerimeter;whiteSpace=wrap;html=1;fixedSize=1;strokeWidth=2;" vertex="1" parent="1">
          <mxGeometry x="353" y="-700" width="144.5" height="60" as="geometry" />
        </mxCell>
        <mxCell id="D7flc1hGJWLErZ-f8fK9-55" style="edgeStyle=orthogonalEdgeStyle;rounded=0;orthogonalLoop=1;jettySize=auto;html=1;exitX=0;exitY=0.5;exitDx=0;exitDy=0;" edge="1" parent="1" source="D7flc1hGJWLErZ-f8fK9-12" target="D7flc1hGJWLErZ-f8fK9-2">
          <mxGeometry relative="1" as="geometry">
            <mxPoint x="210" y="-900" as="targetPoint" />
            <Array as="points">
              <mxPoint x="210" y="-580" />
              <mxPoint x="210" y="-915" />
            </Array>
          </mxGeometry>
        </mxCell>
        <mxCell id="D7flc1hGJWLErZ-f8fK9-12" value="&lt;b&gt;input&lt;/b&gt;&lt;div&gt;&lt;b&gt;&quot;Enter untuk kembali memilih menu&quot;&lt;/b&gt;&lt;/div&gt;" style="shape=parallelogram;perimeter=parallelogramPerimeter;whiteSpace=wrap;html=1;fixedSize=1;strokeWidth=2;" vertex="1" parent="1">
          <mxGeometry x="353" y="-610" width="144.5" height="60" as="geometry" />
        </mxCell>
        <mxCell id="D7flc1hGJWLErZ-f8fK9-17" value="" style="edgeStyle=orthogonalEdgeStyle;rounded=0;orthogonalLoop=1;jettySize=auto;html=1;" edge="1" parent="1" source="D7flc1hGJWLErZ-f8fK9-14" target="D7flc1hGJWLErZ-f8fK9-16">
          <mxGeometry relative="1" as="geometry" />
        </mxCell>
        <mxCell id="D7flc1hGJWLErZ-f8fK9-21" value="" style="edgeStyle=orthogonalEdgeStyle;rounded=0;orthogonalLoop=1;jettySize=auto;html=1;" edge="1" parent="1" source="D7flc1hGJWLErZ-f8fK9-14" target="D7flc1hGJWLErZ-f8fK9-20">
          <mxGeometry relative="1" as="geometry" />
        </mxCell>
        <mxCell id="D7flc1hGJWLErZ-f8fK9-14" value="&lt;b&gt;pilihan == 2&lt;/b&gt;" style="rhombus;whiteSpace=wrap;html=1;strokeWidth=2;" vertex="1" parent="1">
          <mxGeometry x="560" y="-810" width="80" height="80" as="geometry" />
        </mxCell>
        <mxCell id="D7flc1hGJWLErZ-f8fK9-19" value="" style="edgeStyle=orthogonalEdgeStyle;rounded=0;orthogonalLoop=1;jettySize=auto;html=1;" edge="1" parent="1" source="D7flc1hGJWLErZ-f8fK9-16" target="D7flc1hGJWLErZ-f8fK9-18">
          <mxGeometry relative="1" as="geometry" />
        </mxCell>
        <mxCell id="D7flc1hGJWLErZ-f8fK9-16" value="&lt;b&gt;output&lt;/b&gt;&lt;div&gt;&lt;b&gt;&quot;Tambah Jadwal Dokter&quot;&lt;/b&gt;&lt;/div&gt;" style="shape=parallelogram;perimeter=parallelogramPerimeter;whiteSpace=wrap;html=1;fixedSize=1;strokeWidth=2;" vertex="1" parent="1">
          <mxGeometry x="540" y="-700" width="120" height="60" as="geometry" />
        </mxCell>
        <mxCell id="D7flc1hGJWLErZ-f8fK9-25" value="" style="edgeStyle=orthogonalEdgeStyle;rounded=0;orthogonalLoop=1;jettySize=auto;html=1;" edge="1" parent="1" source="D7flc1hGJWLErZ-f8fK9-18" target="D7flc1hGJWLErZ-f8fK9-24">
          <mxGeometry relative="1" as="geometry" />
        </mxCell>
        <mxCell id="D7flc1hGJWLErZ-f8fK9-18" value="&lt;b&gt;input&lt;/b&gt;&lt;div&gt;&lt;b&gt;&quot;Nama Dokter, Praktik, Hari, Jam, Operasi, Tanggal Operasi&quot;&lt;/b&gt;&lt;/div&gt;" style="shape=parallelogram;perimeter=parallelogramPerimeter;whiteSpace=wrap;html=1;fixedSize=1;strokeWidth=2;" vertex="1" parent="1">
          <mxGeometry x="525" y="-610" width="150" height="70" as="geometry" />
        </mxCell>
        <mxCell id="D7flc1hGJWLErZ-f8fK9-23" value="" style="edgeStyle=orthogonalEdgeStyle;rounded=0;orthogonalLoop=1;jettySize=auto;html=1;" edge="1" parent="1" source="D7flc1hGJWLErZ-f8fK9-20" target="D7flc1hGJWLErZ-f8fK9-22">
          <mxGeometry relative="1" as="geometry" />
        </mxCell>
        <mxCell id="D7flc1hGJWLErZ-f8fK9-37" value="" style="edgeStyle=orthogonalEdgeStyle;rounded=0;orthogonalLoop=1;jettySize=auto;html=1;" edge="1" parent="1" source="D7flc1hGJWLErZ-f8fK9-20" target="D7flc1hGJWLErZ-f8fK9-36">
          <mxGeometry relative="1" as="geometry" />
        </mxCell>
        <mxCell id="D7flc1hGJWLErZ-f8fK9-20" value="&lt;b&gt;pilihan == 3&lt;/b&gt;" style="rhombus;whiteSpace=wrap;html=1;strokeWidth=2;" vertex="1" parent="1">
          <mxGeometry x="740" y="-810" width="80" height="80" as="geometry" />
        </mxCell>
        <mxCell id="D7flc1hGJWLErZ-f8fK9-29" value="" style="edgeStyle=orthogonalEdgeStyle;rounded=0;orthogonalLoop=1;jettySize=auto;html=1;" edge="1" parent="1" source="D7flc1hGJWLErZ-f8fK9-22" target="D7flc1hGJWLErZ-f8fK9-28">
          <mxGeometry relative="1" as="geometry" />
        </mxCell>
        <mxCell id="D7flc1hGJWLErZ-f8fK9-22" value="&lt;b&gt;output&lt;/b&gt;&lt;div&gt;&lt;b&gt;&quot;Perbarui Jadwal Operasi Dokter&quot;&lt;/b&gt;&lt;/div&gt;" style="shape=parallelogram;perimeter=parallelogramPerimeter;whiteSpace=wrap;html=1;fixedSize=1;strokeWidth=2;" vertex="1" parent="1">
          <mxGeometry x="720" y="-700" width="120" height="60" as="geometry" />
        </mxCell>
        <mxCell id="D7flc1hGJWLErZ-f8fK9-27" value="" style="edgeStyle=orthogonalEdgeStyle;rounded=0;orthogonalLoop=1;jettySize=auto;html=1;" edge="1" parent="1" source="D7flc1hGJWLErZ-f8fK9-24" target="D7flc1hGJWLErZ-f8fK9-26">
          <mxGeometry relative="1" as="geometry" />
        </mxCell>
        <mxCell id="D7flc1hGJWLErZ-f8fK9-24" value="&lt;b&gt;output&lt;/b&gt;&lt;div&gt;&lt;b&gt;&quot;Jadwal dokter berhasil ditambahkan&quot;&lt;/b&gt;&lt;/div&gt;" style="shape=parallelogram;perimeter=parallelogramPerimeter;whiteSpace=wrap;html=1;fixedSize=1;strokeWidth=2;" vertex="1" parent="1">
          <mxGeometry x="525" y="-500" width="150" height="70" as="geometry" />
        </mxCell>
        <mxCell id="D7flc1hGJWLErZ-f8fK9-56" style="edgeStyle=orthogonalEdgeStyle;rounded=0;orthogonalLoop=1;jettySize=auto;html=1;exitX=0.5;exitY=1;exitDx=0;exitDy=0;" edge="1" parent="1" source="D7flc1hGJWLErZ-f8fK9-26">
          <mxGeometry relative="1" as="geometry">
            <mxPoint x="210" y="-580" as="targetPoint" />
          </mxGeometry>
        </mxCell>
        <mxCell id="D7flc1hGJWLErZ-f8fK9-26" value="&lt;b&gt;input&lt;/b&gt;&lt;div&gt;&lt;b&gt;&quot;Enter untuk kembali memilih menu&quot;&lt;/b&gt;&lt;/div&gt;" style="shape=parallelogram;perimeter=parallelogramPerimeter;whiteSpace=wrap;html=1;fixedSize=1;strokeWidth=2;" vertex="1" parent="1">
          <mxGeometry x="525" y="-400" width="150" height="70" as="geometry" />
        </mxCell>
        <mxCell id="D7flc1hGJWLErZ-f8fK9-33" value="" style="edgeStyle=orthogonalEdgeStyle;rounded=0;orthogonalLoop=1;jettySize=auto;html=1;" edge="1" parent="1" source="D7flc1hGJWLErZ-f8fK9-28" target="D7flc1hGJWLErZ-f8fK9-32">
          <mxGeometry relative="1" as="geometry" />
        </mxCell>
        <mxCell id="D7flc1hGJWLErZ-f8fK9-28" value="&lt;b&gt;input&lt;/b&gt;&lt;div&gt;&lt;b&gt;&quot;Jenis operasi baru dan tanggal operasi baru&quot;&lt;/b&gt;&lt;/div&gt;" style="shape=parallelogram;perimeter=parallelogramPerimeter;whiteSpace=wrap;html=1;fixedSize=1;strokeWidth=2;" vertex="1" parent="1">
          <mxGeometry x="700" y="-610" width="160" height="65" as="geometry" />
        </mxCell>
        <mxCell id="D7flc1hGJWLErZ-f8fK9-35" value="" style="edgeStyle=orthogonalEdgeStyle;rounded=0;orthogonalLoop=1;jettySize=auto;html=1;" edge="1" parent="1" source="D7flc1hGJWLErZ-f8fK9-32" target="D7flc1hGJWLErZ-f8fK9-34">
          <mxGeometry relative="1" as="geometry" />
        </mxCell>
        <mxCell id="D7flc1hGJWLErZ-f8fK9-32" value="&lt;b&gt;output&lt;/b&gt;&lt;div&gt;&lt;b&gt;&quot;Jadwal operasi berhasil diperbarui&quot;&lt;/b&gt;&lt;/div&gt;" style="shape=parallelogram;perimeter=parallelogramPerimeter;whiteSpace=wrap;html=1;fixedSize=1;strokeWidth=2;" vertex="1" parent="1">
          <mxGeometry x="700" y="-500" width="160" height="65" as="geometry" />
        </mxCell>
        <mxCell id="D7flc1hGJWLErZ-f8fK9-57" style="edgeStyle=orthogonalEdgeStyle;rounded=0;orthogonalLoop=1;jettySize=auto;html=1;exitX=0.5;exitY=1;exitDx=0;exitDy=0;" edge="1" parent="1" source="D7flc1hGJWLErZ-f8fK9-34">
          <mxGeometry relative="1" as="geometry">
            <mxPoint x="210" y="-510" as="targetPoint" />
          </mxGeometry>
        </mxCell>
        <mxCell id="D7flc1hGJWLErZ-f8fK9-34" value="&lt;b&gt;input&lt;/b&gt;&lt;div&gt;&lt;b&gt;&quot;Enter untuk kembali memilih menu&quot;&lt;/b&gt;&lt;/div&gt;" style="shape=parallelogram;perimeter=parallelogramPerimeter;whiteSpace=wrap;html=1;fixedSize=1;strokeWidth=2;" vertex="1" parent="1">
          <mxGeometry x="705" y="-400" width="150" height="70" as="geometry" />
        </mxCell>
        <mxCell id="D7flc1hGJWLErZ-f8fK9-39" value="" style="edgeStyle=orthogonalEdgeStyle;rounded=0;orthogonalLoop=1;jettySize=auto;html=1;" edge="1" parent="1" source="D7flc1hGJWLErZ-f8fK9-36" target="D7flc1hGJWLErZ-f8fK9-38">
          <mxGeometry relative="1" as="geometry" />
        </mxCell>
        <mxCell id="D7flc1hGJWLErZ-f8fK9-47" value="" style="edgeStyle=orthogonalEdgeStyle;rounded=0;orthogonalLoop=1;jettySize=auto;html=1;" edge="1" parent="1" source="D7flc1hGJWLErZ-f8fK9-36" target="D7flc1hGJWLErZ-f8fK9-46">
          <mxGeometry relative="1" as="geometry" />
        </mxCell>
        <mxCell id="D7flc1hGJWLErZ-f8fK9-36" value="&lt;b&gt;pilihan == 4&lt;/b&gt;" style="rhombus;whiteSpace=wrap;html=1;strokeWidth=2;" vertex="1" parent="1">
          <mxGeometry x="900" y="-810" width="80" height="80" as="geometry" />
        </mxCell>
        <mxCell id="D7flc1hGJWLErZ-f8fK9-41" value="" style="edgeStyle=orthogonalEdgeStyle;rounded=0;orthogonalLoop=1;jettySize=auto;html=1;" edge="1" parent="1" source="D7flc1hGJWLErZ-f8fK9-38" target="D7flc1hGJWLErZ-f8fK9-40">
          <mxGeometry relative="1" as="geometry" />
        </mxCell>
        <mxCell id="D7flc1hGJWLErZ-f8fK9-38" value="&lt;b&gt;output&lt;/b&gt;&lt;div&gt;&lt;b&gt;&quot;Hapus Jadwal Operasi&quot;&lt;/b&gt;&lt;/div&gt;" style="shape=parallelogram;perimeter=parallelogramPerimeter;whiteSpace=wrap;html=1;fixedSize=1;strokeWidth=2;" vertex="1" parent="1">
          <mxGeometry x="880" y="-700" width="120" height="60" as="geometry" />
        </mxCell>
        <mxCell id="D7flc1hGJWLErZ-f8fK9-43" value="" style="edgeStyle=orthogonalEdgeStyle;rounded=0;orthogonalLoop=1;jettySize=auto;html=1;" edge="1" parent="1" source="D7flc1hGJWLErZ-f8fK9-40" target="D7flc1hGJWLErZ-f8fK9-42">
          <mxGeometry relative="1" as="geometry" />
        </mxCell>
        <mxCell id="D7flc1hGJWLErZ-f8fK9-40" value="&lt;b&gt;input&lt;/b&gt;&lt;div&gt;&lt;b&gt;&quot;Jenis Operasi yang ingin dihapus&quot;&lt;/b&gt;&lt;/div&gt;" style="shape=parallelogram;perimeter=parallelogramPerimeter;whiteSpace=wrap;html=1;fixedSize=1;strokeWidth=2;" vertex="1" parent="1">
          <mxGeometry x="875" y="-610" width="130" height="70" as="geometry" />
        </mxCell>
        <mxCell id="D7flc1hGJWLErZ-f8fK9-45" value="" style="edgeStyle=orthogonalEdgeStyle;rounded=0;orthogonalLoop=1;jettySize=auto;html=1;" edge="1" parent="1" source="D7flc1hGJWLErZ-f8fK9-42" target="D7flc1hGJWLErZ-f8fK9-44">
          <mxGeometry relative="1" as="geometry" />
        </mxCell>
        <mxCell id="D7flc1hGJWLErZ-f8fK9-42" value="&lt;b&gt;output&lt;/b&gt;&lt;div&gt;&lt;b&gt;&quot;Jadwal operasi berhasil dihapus&quot;&lt;/b&gt;&lt;/div&gt;" style="shape=parallelogram;perimeter=parallelogramPerimeter;whiteSpace=wrap;html=1;fixedSize=1;strokeWidth=2;" vertex="1" parent="1">
          <mxGeometry x="875" y="-500" width="130" height="70" as="geometry" />
        </mxCell>
        <mxCell id="D7flc1hGJWLErZ-f8fK9-58" style="edgeStyle=orthogonalEdgeStyle;rounded=0;orthogonalLoop=1;jettySize=auto;html=1;exitX=0.5;exitY=1;exitDx=0;exitDy=0;" edge="1" parent="1" source="D7flc1hGJWLErZ-f8fK9-44">
          <mxGeometry relative="1" as="geometry">
            <mxPoint x="210" y="-440" as="targetPoint" />
          </mxGeometry>
        </mxCell>
        <mxCell id="D7flc1hGJWLErZ-f8fK9-44" value="&lt;b&gt;input&lt;/b&gt;&lt;div&gt;&lt;b&gt;&quot;Enter untuk kembali memilih menu&quot;&lt;/b&gt;&lt;/div&gt;" style="shape=parallelogram;perimeter=parallelogramPerimeter;whiteSpace=wrap;html=1;fixedSize=1;strokeWidth=2;" vertex="1" parent="1">
          <mxGeometry x="875" y="-400" width="130" height="70" as="geometry" />
        </mxCell>
        <mxCell id="D7flc1hGJWLErZ-f8fK9-49" value="" style="edgeStyle=orthogonalEdgeStyle;rounded=0;orthogonalLoop=1;jettySize=auto;html=1;" edge="1" parent="1" source="D7flc1hGJWLErZ-f8fK9-46" target="D7flc1hGJWLErZ-f8fK9-48">
          <mxGeometry relative="1" as="geometry" />
        </mxCell>
        <mxCell id="D7flc1hGJWLErZ-f8fK9-51" value="" style="edgeStyle=orthogonalEdgeStyle;rounded=0;orthogonalLoop=1;jettySize=auto;html=1;" edge="1" parent="1" source="D7flc1hGJWLErZ-f8fK9-46" target="D7flc1hGJWLErZ-f8fK9-50">
          <mxGeometry relative="1" as="geometry" />
        </mxCell>
        <mxCell id="D7flc1hGJWLErZ-f8fK9-46" value="&lt;b&gt;pilihan == 5&lt;/b&gt;" style="rhombus;whiteSpace=wrap;html=1;strokeWidth=2;" vertex="1" parent="1">
          <mxGeometry x="1060" y="-810" width="80" height="80" as="geometry" />
        </mxCell>
        <mxCell id="D7flc1hGJWLErZ-f8fK9-48" value="&lt;b&gt;output Keluar&lt;/b&gt;" style="shape=parallelogram;perimeter=parallelogramPerimeter;whiteSpace=wrap;html=1;fixedSize=1;strokeWidth=2;" vertex="1" parent="1">
          <mxGeometry x="1040" y="-700" width="120" height="60" as="geometry" />
        </mxCell>
        <mxCell id="D7flc1hGJWLErZ-f8fK9-50" value="&lt;b&gt;output&lt;/b&gt;&lt;div&gt;&lt;b&gt;&quot;Menu pilihan tidak tersedia&quot;&lt;/b&gt;&lt;/div&gt;" style="shape=parallelogram;perimeter=parallelogramPerimeter;whiteSpace=wrap;html=1;fixedSize=1;strokeWidth=2;" vertex="1" parent="1">
          <mxGeometry x="1200" y="-805" width="140" height="70" as="geometry" />
        </mxCell>
        <mxCell id="D7flc1hGJWLErZ-f8fK9-66" style="edgeStyle=none;rounded=0;orthogonalLoop=1;jettySize=auto;html=1;exitX=0;exitY=0;exitDx=0;exitDy=0;entryX=0.96;entryY=0.454;entryDx=0;entryDy=0;entryPerimeter=0;" edge="1" parent="1" source="D7flc1hGJWLErZ-f8fK9-62" target="D7flc1hGJWLErZ-f8fK9-2">
          <mxGeometry relative="1" as="geometry" />
        </mxCell>
      </root>
    </mxGraphModel>
  </diagram>
</mxfile>
